<svg width="329" height="404" viewBox="0 0 329 404" fill="none" xmlns="http://www.w3.org/2000/svg">
<path d="M41 403.5H1V302.5L215.5 135.5H219V403.5H130V276L41 325V403.5Z" fill="black"/>
<path d="M328 202.5V403.5H238.5V135.5H240L328 202.5Z" fill="black"/>
<path d="M328 173L238 103.5V2L328 96V173Z" fill="black"/>
<path d="M238 403.5H238.5M238.5 403.5H328V202.5L240 135.5H238.5V403.5ZM1 403.5H41V325L130 276V403.5H219V135.5H215.5L1 302.5V403.5ZM238 103.5L328 173V96L238 2V103.5Z" stroke="black"/>
</svg>
